<svg width="24" height="24" viewBox="0 0 24 24" fill="none" xmlns="http://www.w3.org/2000/svg">
<path d="M13.4504 5.50341C14.1994 5.7908 14.8855 6.21211 15.4803 6.74618L11.1132 11.1132L10.9364 11.29L11.1132 11.4668L12.5332 12.8868L12.71 13.0636L12.8868 12.8868L17.1327 8.64083C18.0584 9.92148 18.6185 11.432 18.75 13.0101C18.7462 14.2846 18.0223 15.4622 16.8059 16.3316C15.5867 17.203 13.8889 17.75 12 17.75C10.1111 17.75 8.41329 17.203 7.19412 16.3316C5.97447 15.4599 5.25 14.2784 5.25 13C5.25 11.8756 5.80718 10.2706 6.76573 8.79894C7.72288 7.32943 9.04957 6.04021 10.5442 5.50538L10.8811 5.38483L10.6521 5.10995C10.3898 4.79526 10.25 4.40201 10.25 4C10.25 3.53587 10.4344 3.09075 10.7626 2.76256C11.0908 2.43437 11.5359 2.25 12 2.25C12.4641 2.25 12.9092 2.43437 13.2374 2.76256C13.5656 3.09075 13.75 3.53587 13.75 4C13.75 4.40201 13.6102 4.79526 13.3479 5.10995L13.1243 5.37828L13.4504 5.50341ZM5.25 21.75V20.25H18.75V21.75H5.25Z" stroke="black" stroke-width="0.5"/>
</svg>
