<svg width="24" height="24" viewBox="0 0 24 24" fill="none" xmlns="http://www.w3.org/2000/svg">
<path d="M13.55 12.25H13.6944L13.7666 12.125C14.4324 10.9715 15.6703 10.25 17 10.25C17.9946 10.25 18.9484 10.6451 19.6517 11.3483C20.3549 12.0516 20.75 13.0054 20.75 14C20.75 14.9946 20.3549 15.9484 19.6517 16.6516C18.9484 17.3549 17.9946 17.75 17 17.75H7.00004C5.66007 17.75 4.41191 17.0382 3.71619 15.8744C3.22726 15.0089 3.1006 13.9851 3.36394 13.0266C3.62754 12.0671 4.26043 11.251 5.12416 10.757L5.12417 10.757L5.12614 10.7559C6.90542 9.71639 9.20204 10.334 10.2334 12.1248L10.3055 12.25H10.45H11H11.25V12V7V6.75H11H8.25004V5.25H11H11.25V5V2.25H12.75V5V5.25H13H15.75V6.75H13H12.75V7V12V12.25H13H13.55ZM18.75 21.75H5.25004V20.25H18.75V21.75Z" stroke="black" stroke-width="0.5"/>
</svg>
