<svg width="24" height="24" viewBox="0 0 24 24" fill="none" xmlns="http://www.w3.org/2000/svg">
<path d="M10.0981 3.79856L10.0983 3.79821C10.7414 2.82898 11.8326 2.25 13 2.25C13.9946 2.25 14.9484 2.64509 15.6517 3.34835C16.3549 4.05161 16.75 5.00544 16.75 6V17.75H8.42C8.12095 17.75 7.82328 17.6197 7.60678 17.4032L7.60518 17.4016C7.14581 16.9505 7.14327 16.2094 7.59759 15.746C7.59785 15.7457 7.5981 15.7454 7.59836 15.7452L12.3968 10.9468C12.934 10.4096 13.0669 9.602 12.741 8.9235C12.7298 8.87596 12.7101 8.83913 12.6954 8.81523C12.6846 8.79767 12.6737 8.78276 12.6677 8.77464L12.6603 8.76448C12.6585 8.76205 12.658 8.76124 12.658 8.76132L12.6573 8.76029C12.2718 8.18819 11.4763 8.03335 10.9189 8.42358L9.03202 9.67847L7.32162 7.96807L10.0981 3.79856ZM18.75 21.75H5.25V20.25H18.75V21.75Z" stroke="black" stroke-width="0.5"/>
</svg>
