<svg width="24" height="24" viewBox="0 0 24 24" fill="none" xmlns="http://www.w3.org/2000/svg">
<path d="M10.18 9.75H8.25V8.25H10.72H10.9116L10.9614 8.065L11.0314 7.805L11.0875 7.59671L10.8897 7.51072C10.2579 7.23615 9.75386 6.73211 9.47928 6.10035L9.47876 6.09917C8.86443 4.70546 9.49726 3.08388 10.8896 2.47932L10.8896 2.47932L10.8908 2.47877C12.2845 1.86444 13.9061 2.49726 14.5107 3.88958L14.5113 3.89109C14.6573 4.2213 14.7366 4.57709 14.7447 4.93803C14.7527 5.29898 14.6893 5.65795 14.5582 5.99432C14.427 6.3307 14.2307 6.63783 13.9805 6.89809C13.7303 7.15834 13.4311 7.36658 13.1001 7.51083L12.9026 7.59692L12.9586 7.805L13.0286 8.065L13.0784 8.25H13.27H15.75V9.75H13.82H13.4928L13.5788 10.0657L15.6728 17.75H8.32724L10.4212 10.0657L10.5072 9.75H10.18ZM18.75 21.75H5.25V20.25H18.75V21.75Z" stroke="black" stroke-width="0.5"/>
</svg>
