<svg width="24" height="24" viewBox="0 0 24 24" fill="none" xmlns="http://www.w3.org/2000/svg">
<path d="M18.7223 6.59441L18.621 6.64277L18.5898 6.75057L16.7598 13.0806L16.75 13.1146V13.15V17.75H7.25V13.15V13.1146L7.24016 13.0806L5.41017 6.75057L5.379 6.64277L5.27774 6.59441C4.68579 6.31169 4.25 5.70422 4.25 5C4.25 4.53587 4.43437 4.09075 4.76256 3.76256C5.09075 3.43437 5.53587 3.25 6 3.25C6.46413 3.25 6.90925 3.43437 7.23744 3.76256C7.56563 4.09075 7.75 4.53587 7.75 5C7.75 5.43746 7.59343 5.82731 7.31549 6.13131L7.16094 6.30035L7.31584 6.46907L10.1158 9.51907L10.4732 9.90832L10.5475 9.38517L11.0775 5.65517L11.0988 5.50547L10.9761 5.41712C10.5383 5.10189 10.25 4.5859 10.25 4C10.25 3.53587 10.4344 3.09075 10.7626 2.76256C11.0908 2.43437 11.5359 2.25 12 2.25C12.4641 2.25 12.9092 2.43437 13.2374 2.76256C13.5656 3.09075 13.75 3.53587 13.75 4C13.75 4.5859 13.4617 5.10189 13.0239 5.41712L12.9012 5.50547L12.9225 5.65517L13.4525 9.38517L13.5275 9.91308L13.8853 9.51778L16.6553 6.45778L16.8018 6.29596L16.6612 6.12899C16.3953 5.81306 16.2496 5.41323 16.25 5.00024V5C16.25 4.53587 16.4344 4.09075 16.7626 3.76256C17.0908 3.43437 17.5359 3.25 18 3.25C18.4641 3.25 18.9092 3.43437 19.2374 3.76256C19.5656 4.09075 19.75 4.53587 19.75 5C19.75 5.70422 19.3142 6.31169 18.7223 6.59441ZM18.75 20.25V21.75H5.25V20.25H18.75Z" stroke="black" stroke-width="0.5"/>
</svg>
