<svg width="19" height="20" viewBox="0 0 19 20" fill="none" xmlns="http://www.w3.org/2000/svg">
<path d="M17 20H3V18H17V20ZM15 8C13.58 8 12.26 8.77 11.55 10H11V5H14V3H11V0H9V3H6V5H9V10H8.45C7.35 8.09 4.9 7.43 3 8.54C2.07889 9.06686 1.40395 9.93711 1.12284 10.9603C0.84173 11.9836 0.97734 13.0765 1.5 14C2.24 15.24 3.57 16 5 16H15C16.0609 16 17.0783 15.5786 17.8284 14.8284C18.5786 14.0783 19 13.0609 19 12C19 10.9391 18.5786 9.92172 17.8284 9.17157C17.0783 8.42143 16.0609 8 15 8Z" fill="black"/>
</svg>
