<svg width="19" height="20" viewBox="0 0 19 20" fill="none" xmlns="http://www.w3.org/2000/svg">
<path d="M11.55 10.5H11.8387L11.9831 10.25C12.6047 9.17303 13.7606 8.5 15 8.5C15.9283 8.5 16.8185 8.86875 17.4749 9.52513C18.1313 10.1815 18.5 11.0717 18.5 12C18.5 12.9283 18.1313 13.8185 17.4749 14.4749C16.8185 15.1313 15.9283 15.5 15 15.5H5.00004C3.7501 15.5 2.5838 14.8364 1.93235 13.7487C1.47715 12.9413 1.35943 11.9867 1.60501 11.0928C1.85109 10.1971 2.44194 9.43524 3.24829 8.97402L3.2483 8.97404L3.25225 8.97172C4.91081 8.00278 7.05404 8.57791 8.01675 10.2495L8.161 10.5H8.45004H9.00004H9.50004V10V5V4.5H9.00004H6.50004V3.5H9.00004H9.50004V3V0.5H10.5V3V3.5H11H13.5V4.5H11H10.5V5V10V10.5H11H11.55ZM16.5 19.5H3.50004V18.5H16.5V19.5Z" stroke="black"/>
</svg>
